TITLE ""
FILE "DISC1Track17.mp3" MP3
  TRACK 01 AUDIO
    TITLE "DISC1Track17_01"
    INDEX 01 00:00:00
  TRACK 02 AUDIO
    TITLE "DISC1Track17_02"
    INDEX 01 00:01:49
  TRACK 03 AUDIO
    TITLE "DISC1Track17_03"
    INDEX 01 00:01:63
  TRACK 04 AUDIO
    TITLE "DISC1Track17_04"
    INDEX 01 00:05:13
  TRACK 05 AUDIO
    TITLE "DISC1Track17_05"
    INDEX 01 00:08:25
  TRACK 06 AUDIO
    TITLE "DISC1Track17_06"
    INDEX 01 00:11:02
  TRACK 07 AUDIO
    TITLE "DISC1Track17_07"
    INDEX 01 00:11:18
  TRACK 08 AUDIO
    TITLE "DISC1Track17_08"
    INDEX 01 00:14:10
  TRACK 09 AUDIO
    TITLE "DISC1Track17_09"
    INDEX 01 00:17:07
  TRACK 10 AUDIO
    TITLE "DISC1Track17_10"
    INDEX 01 00:19:51
  TRACK 11 AUDIO
    TITLE "DISC1Track17_11"
    INDEX 01 00:19:66
  TRACK 12 AUDIO
    TITLE "DISC1Track17_12"
    INDEX 01 00:23:05
  TRACK 13 AUDIO
    TITLE "DISC1Track17_13"
    INDEX 01 00:26:45
  TRACK 14 AUDIO
    TITLE "DISC1Track17_14"
    INDEX 01 00:29:51
  TRACK 15 AUDIO
    TITLE "DISC1Track17_15"
    INDEX 01 00:29:63
  TRACK 16 AUDIO
    TITLE "DISC1Track17_16"
    INDEX 01 00:32:71
  TRACK 17 AUDIO
    TITLE "DISC1Track17_17"
    INDEX 01 00:36:61
  TRACK 18 AUDIO
    TITLE "DISC1Track17_18"
    INDEX 01 00:40:24
  TRACK 19 AUDIO
    TITLE "DISC1Track17_19"
    INDEX 01 00:40:41
  TRACK 20 AUDIO
    TITLE "DISC1Track17_20"
    INDEX 01 00:44:02
  TRACK 21 AUDIO
    TITLE "DISC1Track17_21"
    INDEX 01 00:47:10
  TRACK 22 AUDIO
    TITLE "DISC1Track17_22"
    INDEX 01 00:49:58
  TRACK 23 AUDIO
    TITLE "DISC1Track17_23"
    INDEX 01 00:49:73
  TRACK 24 AUDIO
    TITLE "DISC1Track17_24"
    INDEX 01 00:52:64
  TRACK 25 AUDIO
    TITLE "DISC1Track17_25"
    INDEX 01 00:55:58
  TRACK 26 AUDIO
    TITLE "DISC1Track17_26"
    INDEX 01 00:58:08
  TRACK 27 AUDIO
    TITLE "DISC1Track17_27"
    INDEX 01 00:58:37
  TRACK 28 AUDIO
    TITLE "DISC1Track17_28"
    INDEX 01 00:59:74
  TRACK 29 AUDIO
    TITLE "DISC1Track17_29"
    INDEX 01 01:02:04
  TRACK 30 AUDIO
    TITLE "DISC1Track17_30"
    INDEX 01 01:03:58
  TRACK 31 AUDIO
    TITLE "DISC1Track17_31"
    INDEX 01 01:04:01
  TRACK 32 AUDIO
    TITLE "DISC1Track17_32"
    INDEX 01 01:07:48
  TRACK 33 AUDIO
    TITLE "DISC1Track17_33"
    INDEX 01 01:11:04
  TRACK 34 AUDIO
    TITLE "DISC1Track17_34"
    INDEX 01 01:13:74
  TRACK 35 AUDIO
    TITLE "DISC1Track17_35"
    INDEX 01 01:14:18
  TRACK 36 AUDIO
    TITLE "DISC1Track17_36"
    INDEX 01 01:18:73
  TRACK 37 AUDIO
    TITLE "DISC1Track17_37"
    INDEX 01 01:23:04
  TRACK 38 AUDIO
    TITLE "DISC1Track17_38"
    INDEX 01 01:26:63
  TRACK 39 AUDIO
    TITLE "DISC1Track17_39"
    INDEX 01 01:27:04
  TRACK 40 AUDIO
    TITLE "DISC1Track17_40"
    INDEX 01 01:30:27
  TRACK 41 AUDIO
    TITLE "DISC1Track17_41"
    INDEX 01 01:33:30
  TRACK 42 AUDIO
    TITLE "DISC1Track17_42"
    INDEX 01 01:36:08
  TRACK 43 AUDIO
    TITLE "DISC1Track17_43"
    INDEX 01 01:36:18
  TRACK 44 AUDIO
    TITLE "DISC1Track17_44"
    INDEX 01 01:40:51
  TRACK 45 AUDIO
    TITLE "DISC1Track17_45"
    INDEX 01 01:45:11
  TRACK 46 AUDIO
    TITLE "DISC1Track17_46"
    INDEX 01 01:49:17
